filtEMG_segment_2.mot
version=1
nRows=70
nColumns=4
inDegrees=no
endheader
                Time	                LMEH	                LBIF	                LREF	
          4.25000000	          0.00281194	          0.01306557	          0.02385358	
          4.25500000	          0.00264145	          0.01292158	          0.02330563	
          4.26000000	          0.00246745	          0.01272360	          0.02279312	
          4.26500000	          0.00229841	          0.01249180	          0.02231901	
          4.27000000	          0.00214234	          0.01224757	          0.02187675	
          4.27500000	          0.00200616	          0.01201132	          0.02145247	
          4.28000000	          0.00189523	          0.01180057	          0.02102775	
          4.28500000	          0.00181306	          0.01162835	          0.02058274	
          4.29000000	          0.00176108	          0.01150222	          0.02009932	
          4.29500000	          0.00173876	          0.01142389	          0.01956403	
          4.30000000	          0.00174377	          0.01138950	          0.01897064	
          4.30500000	          0.00177232	          0.01139042	          0.01832204	
          4.31000000	          0.00181963	          0.01141443	          0.01763151	
          4.31500000	          0.00188037	          0.01144714	          0.01692292	
          4.32000000	          0.00194912	          0.01147350	          0.01622995	
          4.32500000	          0.00202077	          0.01147922	          0.01559406	
          4.33000000	          0.00209079	          0.01145191	          0.01506147	
          4.33500000	          0.00215547	          0.01138205	          0.01467900	
          4.34000000	          0.00221197	          0.01126356	          0.01448949	
          4.34500000	          0.00225834	          0.01109417	          0.01452683	
          4.35000000	          0.00229344	          0.01087538	          0.01481145	
          4.35500000	          0.00231680	          0.01061236	          0.01534670	
          4.36000000	          0.00232856	          0.01031351	          0.01611657	
          4.36500000	          0.00232930	          0.00998990	          0.01708525	
          4.37000000	          0.00231999	          0.00965460	          0.01819862	
          4.37500000	          0.00230196	          0.00932185	          0.01938767	
          4.38000000	          0.00227684	          0.00900611	          0.02057373	
          4.38500000	          0.00224666	          0.00872111	          0.02167477	
          4.39000000	          0.00221382	          0.00847889	          0.02261249	
          4.39500000	          0.00218107	          0.00828899	          0.02331923	
          4.40000000	          0.00215156	          0.00815775	          0.02374412	
          4.40500000	          0.00212864	          0.00808796	          0.02385780	
          4.41000000	          0.00211580	          0.00807874	          0.02365533	
          4.41500000	          0.00211636	          0.00812581	          0.02315688	
          4.42000000	          0.00213325	          0.00822203	          0.02240625	
          4.42500000	          0.00216865	          0.00835816	          0.02146738	
          4.43000000	          0.00222370	          0.00852382	          0.02041905	
          4.43500000	          0.00229825	          0.00870845	          0.01934840	
          4.44000000	          0.00239070	          0.00890217	          0.01834362	
          4.44500000	          0.00249797	          0.00909646	          0.01748655	
          4.45000000	          0.00261564	          0.00928453	          0.01684579	
          4.45500000	          0.00273822	          0.00946140	          0.01647073	
          4.46000000	          0.00285961	          0.00962361	          0.01638726	
          4.46500000	          0.00297355	          0.00976878	          0.01659530	
          4.47000000	          0.00307424	          0.00989492	          0.01706867	
          4.47500000	          0.00315684	          0.00999983	          0.01775713	
          4.48000000	          0.00321788	          0.01008059	          0.01859066	
          4.48500000	          0.00325561	          0.01013339	          0.01948560	
          4.49000000	          0.00327001	          0.01015358	          0.02035207	
          4.49500000	          0.00326278	          0.01013624	          0.02110209	
          4.50000000	          0.00323697	          0.01007693	          0.02165753	
          4.50500000	          0.00319660	          0.00997269	          0.02195720	
          4.51000000	          0.00314610	          0.00982303	          0.02196234	
          4.51500000	          0.00308982	          0.00963077	          0.02165998	
          4.52000000	          0.00303152	          0.00940257	          0.02106387	
          4.52500000	          0.00297406	          0.00914897	          0.02021304	
          4.53000000	          0.00291918	          0.00888403	          0.01916794	
          4.53500000	          0.00286750	          0.00862442	          0.01800491	
          4.54000000	          0.00281862	          0.00838816	          0.01680919	
          4.54500000	          0.00277143	          0.00819312	          0.01566738	
          4.55000000	          0.00272443	          0.00805541	          0.01465994	
          4.55500000	          0.00267601	          0.00798795	          0.01385424	
          4.56000000	          0.00262481	          0.00799918	          0.01329900	
          4.56500000	          0.00256992	          0.00809233	          0.01302029	
          4.57000000	          0.00251105	          0.00826503	          0.01301956	
          4.57500000	          0.00244855	          0.00850953	          0.01327386	
          4.58000000	          0.00238345	          0.00881332	          0.01373813	
          4.58500000	          0.00231734	          0.00916029	          0.01434953	
          4.59000000	          0.00225231	          0.00953209	          0.01503337	
          4.59500000	          0.00219078	          0.00990969	          0.01571032	
